<mxfile host="65bd71144e">
    <diagram id="h8sX6S1mLoBgmJrfqR-_" name="Page-1">
        <mxGraphModel dx="2556" dy="986" grid="1" gridSize="10" guides="0" tooltips="1" connect="1" arrows="1" fold="1" page="1" pageScale="1" pageWidth="850" pageHeight="1100" math="0" shadow="0">
            <root>
                <mxCell id="0"/>
                <mxCell id="1" parent="0"/>
                <mxCell id="14" style="edgeStyle=none;html=1;startArrow=ERone;startFill=0;endArrow=ERmany;endFill=0;exitX=0.5;exitY=1;exitDx=0;exitDy=0;entryX=0.5;entryY=0;entryDx=0;entryDy=0;" parent="1" source="15" target="16" edge="1">
                    <mxGeometry relative="1" as="geometry">
                        <mxPoint x="50" y="630" as="sourcePoint"/>
                        <mxPoint x="70" y="720" as="targetPoint"/>
                    </mxGeometry>
                </mxCell>
                <mxCell id="15" value="Case" style="swimlane;" parent="1" vertex="1">
                    <mxGeometry x="75" y="220" width="270" height="170" as="geometry"/>
                </mxCell>
                <mxCell id="17" value="&lt;div style=&quot;background-color: rgb(29, 29, 38); font-family: Menlo, Monaco, &amp;quot;Courier New&amp;quot;, monospace; font-size: 12px; line-height: 18px;&quot;&gt;&lt;div style=&quot;color: rgb(179, 179, 212);&quot;&gt;&lt;span style=&quot;color: rgb(179, 179, 212);&quot;&gt;&lt;b&gt;ðŸ”‘ docketNumber: VARCHAR NOT NULL &lt;/b&gt;&lt;/span&gt;&lt;/div&gt;&lt;div style=&quot;color: rgb(179, 179, 212); font-weight: normal;&quot;&gt;&lt;span style=&quot;color: #b3b3d4;&quot;&gt;trialLocation: VARCHAR NULL&lt;/span&gt;&lt;/div&gt;&lt;div style=&quot;color: rgb(179, 179, 212); font-weight: normal;&quot;&gt;&lt;span style=&quot;color: #b3b3d4;&quot;&gt;trialDate: VARCHAR NULL&lt;/span&gt;&lt;/div&gt;&lt;div style=&quot;color: rgb(179, 179, 212); font-weight: normal;&quot;&gt;&lt;span style=&quot;color: #b3b3d4;&quot;&gt;leadDocketNumber: VARCHAR NULL&lt;/span&gt;&lt;/div&gt;&lt;div style=&quot;color: rgb(179, 179, 212); font-weight: normal;&quot;&gt;&lt;span style=&quot;color: #b3b3d4;&quot;&gt;docketNumberSuffix: VARCHAR NULL&lt;/span&gt;&lt;/div&gt;&lt;div style=&quot;font-weight: normal;&quot;&gt;&lt;div style=&quot;&quot;&gt;&lt;font color=&quot;#b3b3d4&quot;&gt;caseTitle: VARCHAR NOT NULL&lt;/font&gt;&lt;/div&gt;&lt;div style=&quot;&quot;&gt;&lt;font color=&quot;#b3b3d4&quot;&gt;caseStatus: VARCHAR NOT NULL&lt;/font&gt;&lt;/div&gt;&lt;/div&gt;&lt;/div&gt;" style="text;whiteSpace=wrap;html=1;" vertex="1" parent="15">
                    <mxGeometry x="10" y="30" width="260" height="110" as="geometry"/>
                </mxCell>
                <mxCell id="16" value="Message" style="swimlane;" parent="1" vertex="1">
                    <mxGeometry x="70" y="500" width="280" height="470" as="geometry"/>
                </mxCell>
                <mxCell id="21" value="&lt;div style=&quot;background-color: rgb(29, 29, 38); font-family: Menlo, Monaco, &amp;quot;Courier New&amp;quot;, monospace; font-size: 12px; line-height: 18px;&quot;&gt;&lt;div style=&quot;&quot;&gt;&lt;b style=&quot;color: rgb(179, 179, 212);&quot;&gt;messageId: ðŸ”‘ VARCHAR NOT NULL&lt;/b&gt;&lt;font color=&quot;#cc0000&quot;&gt;&lt;br&gt;&lt;/font&gt;&lt;/div&gt;&lt;div style=&quot;&quot;&gt;&lt;font color=&quot;#66b2ff&quot;&gt;attachments: JSONB NULL&lt;/font&gt;&lt;/div&gt;&lt;div style=&quot;color: rgb(179, 179, 212); font-weight: normal;&quot;&gt;&lt;span style=&quot;color: #b3b3d4;&quot;&gt;completedAt: VARCHAR NULL&lt;/span&gt;&lt;/div&gt;&lt;div style=&quot;color: rgb(179, 179, 212); font-weight: normal;&quot;&gt;&lt;span style=&quot;color: #b3b3d4;&quot;&gt;completedBy: VARCHAR NULL&lt;/span&gt;&lt;/div&gt;&lt;div style=&quot;color: rgb(179, 179, 212); font-weight: normal;&quot;&gt;&lt;span style=&quot;color: #b3b3d4;&quot;&gt;completedBySection: VARCHAR NULL&lt;/span&gt;&lt;/div&gt;&lt;div style=&quot;color: rgb(179, 179, 212); font-weight: normal;&quot;&gt;&lt;span style=&quot;color: #b3b3d4;&quot;&gt;completedByUserId: VARCHAR NULL&lt;/span&gt;&lt;/div&gt;&lt;div style=&quot;color: rgb(179, 179, 212); font-weight: normal;&quot;&gt;&lt;span style=&quot;color: #b3b3d4;&quot;&gt;completedMessage: TEXT NULL&lt;/span&gt;&lt;/div&gt;&lt;div style=&quot;color: rgb(179, 179, 212); font-weight: normal;&quot;&gt;&lt;span style=&quot;color: #b3b3d4;&quot;&gt;createdAt: VARCHAR NOT NULL&lt;/span&gt;&lt;/div&gt;&lt;div style=&quot;color: rgb(179, 179, 212);&quot;&gt;&lt;span style=&quot;color: rgb(179, 179, 212);&quot;&gt;&lt;b&gt;&lt;i&gt;docketNumber: VARCHAR NOT NULL&lt;/i&gt;&lt;/b&gt;&lt;/span&gt;&lt;/div&gt;&lt;div style=&quot;color: rgb(179, 179, 212); font-weight: normal;&quot;&gt;&lt;span style=&quot;color: #b3b3d4;&quot;&gt;from: VARCHAR NOT NULL&lt;/span&gt;&lt;/div&gt;&lt;div style=&quot;color: rgb(179, 179, 212); font-weight: normal;&quot;&gt;&lt;span style=&quot;color: #b3b3d4;&quot;&gt;fromSection: VARCHAR NOT NULL&lt;/span&gt;&lt;/div&gt;&lt;div style=&quot;color: rgb(179, 179, 212); font-weight: normal;&quot;&gt;&lt;span style=&quot;color: #b3b3d4;&quot;&gt;fromUserId: VARCHAR NOT NULL&lt;/span&gt;&lt;/div&gt;&lt;div style=&quot;color: rgb(179, 179, 212); font-weight: normal;&quot;&gt;&lt;span style=&quot;color: #b3b3d4;&quot;&gt;isCompleted: BOOLEAN NOT NULL&lt;/span&gt;&lt;/div&gt;&lt;div style=&quot;color: rgb(179, 179, 212); font-weight: normal;&quot;&gt;&lt;span style=&quot;color: #b3b3d4;&quot;&gt;isRead: BOOLEAN NOT NULL&lt;/span&gt;&lt;/div&gt;&lt;div style=&quot;color: rgb(179, 179, 212); font-weight: normal;&quot;&gt;&lt;span style=&quot;color: #b3b3d4;&quot;&gt;isRepliedTo: BOOLEAN NOT NULL&lt;/span&gt;&lt;/div&gt;&lt;div style=&quot;color: rgb(179, 179, 212); font-weight: normal;&quot;&gt;message: TEXT NOT NULL&lt;br&gt;&lt;/div&gt;&lt;div style=&quot;color: rgb(179, 179, 212); font-weight: normal;&quot;&gt;&lt;span style=&quot;color: #b3b3d4;&quot;&gt;parentMessageId: VARCHAR NOT NULL&lt;/span&gt;&lt;/div&gt;&lt;div style=&quot;color: rgb(179, 179, 212); font-weight: normal;&quot;&gt;&lt;span style=&quot;color: #b3b3d4;&quot;&gt;subject: VARCHAR NOT NULL&lt;/span&gt;&lt;/div&gt;&lt;div style=&quot;color: rgb(179, 179, 212); font-weight: normal;&quot;&gt;&lt;span style=&quot;color: #b3b3d4;&quot;&gt;to: VARCHAR NOT NULL&lt;/span&gt;&lt;/div&gt;&lt;div style=&quot;color: rgb(179, 179, 212); font-weight: normal;&quot;&gt;&lt;span style=&quot;color: #b3b3d4;&quot;&gt;toSection: VARCHAR NOT NULL&lt;/span&gt;&lt;/div&gt;&lt;div style=&quot;color: rgb(179, 179, 212); font-weight: normal;&quot;&gt;&lt;span style=&quot;color: #b3b3d4;&quot;&gt;toUserId: VARCHAR NOT NULL&lt;/span&gt;&lt;/div&gt;&lt;/div&gt;" style="text;whiteSpace=wrap;html=1;" vertex="1" parent="16">
                    <mxGeometry x="10" y="30" width="270" height="420" as="geometry"/>
                </mxCell>
                <mxCell id="22" value="WorkItem" style="swimlane;" vertex="1" parent="1">
                    <mxGeometry x="500" y="180" width="300" height="495" as="geometry"/>
                </mxCell>
                <mxCell id="23" value="&lt;div style=&quot;background-color: rgb(29, 29, 38); font-family: Menlo, Monaco, &amp;quot;Courier New&amp;quot;, monospace; font-size: 12px; line-height: 18px;&quot;&gt;&lt;div style=&quot;&quot;&gt;&lt;br&gt;&lt;/div&gt;&lt;/div&gt;" style="text;whiteSpace=wrap;html=1;" vertex="1" parent="22">
                    <mxGeometry x="10" y="30" width="270" height="420" as="geometry"/>
                </mxCell>
                <mxCell id="27" value="&lt;div style=&quot;background-color: rgb(29, 29, 38); font-family: Menlo, Monaco, &amp;quot;Courier New&amp;quot;, monospace; font-size: 12px; line-height: 18px;&quot;&gt;&lt;div style=&quot;color: rgb(179, 179, 212);&quot;&gt;&lt;span style=&quot;color: rgb(179, 179, 212);&quot;&gt;&lt;b&gt;workItemId: ðŸ”‘ VARCHAR NOT NULL&lt;/b&gt;&lt;/span&gt;&lt;/div&gt;&lt;div style=&quot;font-weight: normal; color: rgb(179, 179, 212);&quot;&gt;&lt;span style=&quot;color: #b3b3d4;&quot;&gt;assigneeId: VARCHAR NULL&lt;/span&gt;&lt;/div&gt;&lt;div style=&quot;font-weight: normal; color: rgb(179, 179, 212);&quot;&gt;&lt;span style=&quot;color: #b3b3d4;&quot;&gt;assigneeName: VARCHAR NULL&lt;/span&gt;&lt;/div&gt;&lt;div style=&quot;font-weight: normal;&quot;&gt;&lt;font color=&quot;#66b2ff&quot;&gt;associatedJudge: VARCHAR NOT NULL&lt;/font&gt;&lt;/div&gt;&lt;div style=&quot;font-weight: normal; color: rgb(179, 179, 212);&quot;&gt;&lt;span style=&quot;color: #b3b3d4;&quot;&gt;associatedJudgeId: VARCHAR NULL&lt;/span&gt;&lt;/div&gt;&lt;div style=&quot;font-weight: normal; color: rgb(179, 179, 212);&quot;&gt;&lt;span style=&quot;color: #b3b3d4;&quot;&gt;caseIsInProgress: BOOLEAN NULL&lt;/span&gt;&lt;/div&gt;&lt;div style=&quot;font-weight: normal;&quot;&gt;&lt;span style=&quot;color: rgb(179, 179, 212);&quot;&gt;completedAt: VARCHAR NULL&lt;/span&gt;&lt;br&gt;&lt;/div&gt;&lt;div style=&quot;font-weight: normal; color: rgb(179, 179, 212);&quot;&gt;&lt;span style=&quot;color: #b3b3d4;&quot;&gt;completedBy: VARCHAR NULL&lt;/span&gt;&lt;/div&gt;&lt;div style=&quot;font-weight: normal; color: rgb(179, 179, 212);&quot;&gt;&lt;span style=&quot;color: #b3b3d4;&quot;&gt;completedByUserId: VARCHAR NULL&lt;/span&gt;&lt;/div&gt;&lt;div style=&quot;font-weight: normal; color: rgb(179, 179, 212);&quot;&gt;&lt;span style=&quot;color: #b3b3d4;&quot;&gt;completedMessage: TEXT NULL&lt;/span&gt;&lt;/div&gt;&lt;div style=&quot;font-weight: normal; color: rgb(179, 179, 212);&quot;&gt;&lt;span style=&quot;color: #b3b3d4;&quot;&gt;createdAt: VARCHAR NOT NULL&lt;/span&gt;&lt;/div&gt;&lt;div style=&quot;font-weight: normal;&quot;&gt;&lt;font color=&quot;#66b2ff&quot;&gt;docketEntry: JSONB NOT NULL&lt;/font&gt;&lt;/div&gt;&lt;div style=&quot;color: rgb(179, 179, 212);&quot;&gt;&lt;span style=&quot;color: rgb(179, 179, 212);&quot;&gt;&lt;b&gt;&lt;i&gt;docketNumber: VARCHAR NOT NULL&lt;/i&gt;&lt;/b&gt;&lt;/span&gt;&lt;/div&gt;&lt;div style=&quot;font-weight: normal; color: rgb(179, 179, 212);&quot;&gt;&lt;span style=&quot;color: #b3b3d4;&quot;&gt;hideFromPendingMessages: BOOLEAN NULL&lt;/span&gt;&lt;/div&gt;&lt;div style=&quot;font-weight: normal; color: rgb(179, 179, 212);&quot;&gt;&lt;span style=&quot;color: #b3b3d4;&quot;&gt;highPriority: BOOLEAN NULL&lt;/span&gt;&lt;/div&gt;&lt;div style=&quot;font-weight: normal; color: rgb(179, 179, 212);&quot;&gt;&lt;span style=&quot;color: #b3b3d4;&quot;&gt;inProgress: BOOLEAN NULL&lt;/span&gt;&lt;/div&gt;&lt;div style=&quot;font-weight: normal; color: rgb(179, 179, 212);&quot;&gt;&lt;span style=&quot;color: #b3b3d4;&quot;&gt;isInitializeCase: BOOLEAN NULL&lt;/span&gt;&lt;/div&gt;&lt;div style=&quot;font-weight: normal; color: rgb(179, 179, 212);&quot;&gt;&lt;span style=&quot;color: #b3b3d4;&quot;&gt;isRead: BOOLEAN NULL&lt;/span&gt;&lt;/div&gt;&lt;div style=&quot;font-weight: normal; color: rgb(179, 179, 212);&quot;&gt;&lt;span style=&quot;color: #b3b3d4;&quot;&gt;section: VARCHAR NOT NULL&lt;/span&gt;&lt;/div&gt;&lt;div style=&quot;font-weight: normal; color: rgb(179, 179, 212);&quot;&gt;&lt;span style=&quot;color: #b3b3d4;&quot;&gt;sentBy: VARCHAR NOT NULL&lt;/span&gt;&lt;/div&gt;&lt;div style=&quot;font-weight: normal; color: rgb(179, 179, 212);&quot;&gt;&lt;span style=&quot;color: #b3b3d4;&quot;&gt;sentBySection: VARCHAR NULL&lt;/span&gt;&lt;/div&gt;&lt;div style=&quot;font-weight: normal; color: rgb(179, 179, 212);&quot;&gt;&lt;span style=&quot;color: #b3b3d4;&quot;&gt;sentByUserId: VARCHAR NULL&lt;/span&gt;&lt;/div&gt;&lt;div style=&quot;font-weight: normal; color: rgb(179, 179, 212);&quot;&gt;&lt;span style=&quot;color: #b3b3d4;&quot;&gt;updatedAt: VARCHAR NOT NULL&lt;/span&gt;&lt;/div&gt;&lt;/div&gt;" style="text;whiteSpace=wrap;html=1;fontColor=#CC0000;" vertex="1" parent="22">
                    <mxGeometry x="10" y="30" width="300" height="490" as="geometry"/>
                </mxCell>
                <mxCell id="24" style="edgeStyle=none;html=1;startArrow=ERone;startFill=0;endArrow=ERmany;endFill=0;exitX=1;exitY=0.5;exitDx=0;exitDy=0;entryX=0;entryY=0.25;entryDx=0;entryDy=0;" edge="1" parent="1" source="17" target="22">
                    <mxGeometry relative="1" as="geometry">
                        <mxPoint x="450" y="300" as="sourcePoint"/>
                        <mxPoint x="450" y="430" as="targetPoint"/>
                    </mxGeometry>
                </mxCell>
                <mxCell id="34" value="UserCaseNote (JudgeNote)" style="swimlane;" vertex="1" parent="1">
                    <mxGeometry x="-340" y="240" width="270" height="110" as="geometry"/>
                </mxCell>
                <mxCell id="35" value="&lt;div style=&quot;background-color: rgb(29, 29, 38); font-family: Menlo, Monaco, &amp;quot;Courier New&amp;quot;, monospace; font-size: 12px; line-height: 18px;&quot;&gt;&lt;div style=&quot;color: rgb(179, 179, 212);&quot;&gt;&lt;span style=&quot;color: rgb(179, 179, 212);&quot;&gt;&lt;b&gt;ðŸ”‘ docketNumber: VARCHAR NOT NULL &lt;/b&gt;&lt;/span&gt;&lt;/div&gt;&lt;div style=&quot;color: rgb(179, 179, 212);&quot;&gt;&lt;b style=&quot;font-weight: normal;&quot;&gt;ðŸ”‘&amp;nbsp;&lt;/b&gt;&lt;b&gt;userId: VARCHAR NULL&lt;/b&gt;&lt;/div&gt;&lt;div style=&quot;color: rgb(179, 179, 212); font-weight: normal;&quot;&gt;notes: TEXT NULL&lt;/div&gt;&lt;/div&gt;" style="text;whiteSpace=wrap;html=1;" vertex="1" parent="34">
                    <mxGeometry x="10" y="30" width="260" height="70" as="geometry"/>
                </mxCell>
                <mxCell id="36" style="edgeStyle=none;html=1;startArrow=ERone;startFill=0;endArrow=ERmany;endFill=0;exitX=0;exitY=0.5;exitDx=0;exitDy=0;entryX=1;entryY=0.5;entryDx=0;entryDy=0;" edge="1" parent="1" source="15" target="35">
                    <mxGeometry relative="1" as="geometry">
                        <mxPoint x="-150" y="451.25" as="sourcePoint"/>
                        <mxPoint x="5" y="450" as="targetPoint"/>
                    </mxGeometry>
                </mxCell>
            </root>
        </mxGraphModel>
    </diagram>
</mxfile>